<?xml version="1.0" encoding="UTF-8"?>
<!DOCTYPE svg PUBLIC "-//W3C//DTD SVG 1.0//EN" "http://www.w3.org/TR/2001/REC-SVG-20010904/DTD/svg10.dtd">
<!-- Creator: CorelDRAW -->
<svg xmlns="http://www.w3.org/2000/svg" xml:space="preserve" width="176.266mm" height="44.7968mm" version="1.0" style="shape-rendering:geometricPrecision; text-rendering:geometricPrecision; image-rendering:optimizeQuality; fill-rule:evenodd; clip-rule:evenodd"
viewBox="0 0 17626.6 4479.68"
 xmlns:xlink="http://www.w3.org/1999/xlink"
 xmlns:xodm="http://www.corel.com/coreldraw/odm/2003">
 <defs>
  <style type="text/css">
   <![CDATA[
    .fil0 {fill:#37489D;fill-rule:nonzero}
    .fil1 {fill:url(#id0)}
   ]]>
  </style>
  <linearGradient id="id0" gradientUnits="userSpaceOnUse" x1="151.81" y1="4327.69" x2="2885.33" y2="97.24">
   <stop offset="0" style="stop-opacity:1; stop-color:#F68934"/>
   <stop offset="1" style="stop-opacity:1; stop-color:#FFB32B"/>
  </linearGradient>
 </defs>
 <g id="Camada_x0020_1">
  <metadata id="CorelCorpID_0Corel-Layer"/>
  <g id="_2943086959024">
   <path class="fil0" d="M6935.15 4420.12l-143.56 -347.84c-7.89,-19.11 -25.54,-30.93 -46.22,-30.93l-1054.87 0c-20.68,0 -38.33,11.81 -46.22,30.92l-143.57 347.86c-7.89,19.11 -25.54,30.92 -46.22,30.92l-458.33 0c-17.46,0 -32.48,-8.16 -41.97,-22.82 -9.49,-14.66 -10.8,-31.7 -3.65,-47.64l976.13 -2176.1c8.24,-18.38 25.47,-29.54 45.62,-29.54l504.2 0c20.19,0 37.45,11.2 45.67,29.64l969.92 2176.1c7.1,15.93 5.77,32.95 -3.73,47.58 -9.5,14.64 -24.49,22.78 -41.94,22.78l-465.04 0c-20.68,0 -38.33,-11.81 -46.22,-30.93zm-758.9 -1622.93l-298.52 716.46c-6.63,15.9 -5.01,32.63 4.55,46.97 9.56,14.33 24.37,22.26 41.6,22.26l591.86 0c17.17,0 31.94,-7.87 41.51,-22.13 9.58,-14.26 11.27,-30.91 4.76,-46.81l-293.33 -716.46c-7.83,-19.13 -25.44,-30.99 -46.12,-31.06 -20.67,-0.06 -38.36,11.69 -46.31,30.77zm3155.06 -572.24l0 2176.1c0,27.54 -22.46,50 -50,50l-349.98 0c-24.59,0 -45.19,-17.39 -49.3,-41.64l-9.63 -56.82c-3.08,-18.21 -14.82,-32.3 -32.16,-38.62 -17.35,-6.33 -35.4,-3.1 -49.48,8.85 -126.3,107.16 -282.12,160.75 -467.44,160.75 -149.57,0 -282.35,-35.23 -398.32,-105.68 -115.97,-70.45 -206.47,-169.08 -271.5,-295.89 -65.04,-126.81 -97.55,-271.51 -97.55,-434.09 0,-162.58 32.51,-307.27 97.55,-434.08 65.03,-126.81 155.53,-225.44 271.5,-295.9 115.97,-70.45 248.75,-105.67 398.32,-105.67 160.53,0 300.25,40.91 419.14,122.74 15.69,10.8 34.75,11.94 51.62,3.08 16.86,-8.87 26.73,-25.21 26.73,-44.26l0 -668.87c0,-27.54 22.46,-50 50,-50l410.5 0c27.54,0 50,22.46 50,50zm-887.68 1829.41c112.72,0 204.85,-37.39 276.38,-112.18 71.54,-74.79 107.3,-172.88 107.3,-294.27 0,-121.39 -35.76,-219.48 -107.3,-294.26 -71.53,-74.79 -163.66,-112.18 -276.38,-112.18 -112.72,0 -204.31,37.93 -274.76,113.8 -70.45,75.87 -105.68,173.42 -105.68,292.64 0,119.23 35.23,216.77 105.68,292.64 70.45,75.87 162.04,113.81 274.76,113.81zm1987.45 -48.78l563.8 0c27.54,0 50,22.46 50,50l0 345.47c0,27.54 -22.46,50 -50,50l-1337.19 0c-27.54,0 -50,-22.46 -50,-50l0 -103.58c0,-10.54 2.81,-19.59 8.77,-28.28l626.85 -913.67c10.77,-15.7 11.88,-34.74 3.01,-51.59 -8.87,-16.84 -25.2,-26.7 -44.24,-26.7l-482.61 0c-27.54,0 -50,-22.46 -50,-50l0 -332.46c0,-27.54 22.46,-50 50,-50l1252.65 0c27.54,0 50,22.46 50,50l0 97.05c0,10.56 -2.81,19.63 -8.79,28.33l-623.46 907.11c-10.79,15.7 -11.91,34.75 -3.04,51.6 8.87,16.86 25.2,26.72 44.25,26.72zm2513.94 -1830.63l430.01 0c27.54,0 50,22.46 50,50l0 2176.1c0,27.54 -22.46,50 -50,50l-430.01 0c-27.54,0 -50,-22.46 -50,-50l0 -813.69c0,-27.54 -22.46,-50 -50,-50l-865.71 0c-27.54,0 -50,22.46 -50,50l0 813.69c0,27.54 -22.46,50 -50,50l-433.26 0c-27.54,0 -50,-22.46 -50,-50l0 -2176.1c0,-27.54 22.46,-50 50,-50l433.26 0c27.54,0 50,22.46 50,50l0 781.18c0,27.54 22.46,50 50,50l865.71 0c27.54,0 50,-22.46 50,-50l0 -781.18c0,-27.54 22.46,-50 50,-50zm2518.74 719.82l0 1506.28c0,27.54 -22.46,50 -50,50l-350.22 0c-24.49,0 -45.02,-17.23 -49.25,-41.36l-8.56 -48.82c-3.2,-18.22 -15.05,-32.26 -32.48,-38.47 -17.43,-6.2 -35.49,-2.81 -49.48,9.29 -46.47,40.2 -98.98,72.94 -157.47,98.22 -87.79,37.93 -183.71,56.91 -287.76,56.91 -197.27,0 -354.43,-65.03 -471.48,-195.1 -117.06,-130.06 -175.59,-309.98 -175.59,-539.76l0 -857.19c0,-27.54 22.46,-50 50,-50l410.5 0c27.54,0 50,22.46 50,50l0 827.93c0,104.05 25.47,185.34 76.41,243.87 50.94,58.52 120.85,87.79 209.73,87.79 97.54,0 176.12,-34.14 235.74,-102.43 59.61,-68.28 89.41,-156.61 89.41,-265l0 -792.16c0,-27.54 22.46,-50 50,-50l410.5 0c27.54,0 50,22.46 50,50zm1391.67 -82.51c149.57,0 282.89,35.22 399.94,105.67 117.06,70.46 208.1,169.09 273.13,295.9 65.04,126.81 97.55,271.5 97.55,434.08 0,162.58 -32.51,307.28 -97.55,434.09 -65.03,126.81 -156.07,225.44 -273.13,295.89 -117.05,70.45 -250.37,105.68 -399.94,105.68 -185.32,0 -341.14,-53.59 -467.44,-160.75 -14.08,-11.95 -32.13,-15.18 -49.48,-8.85 -17.35,6.32 -29.08,20.41 -32.16,38.62l-9.63 56.81c-4.11,24.25 -24.7,41.65 -49.3,41.65l-349.98 0c-27.54,0 -50,-22.46 -50,-50l0 -2176.1c0,-27.54 22.46,-50 50,-50l410.5 0c27.54,0 50,22.46 50,50l0 668.87c0,19.05 9.87,35.39 26.73,44.26 16.87,8.86 35.92,7.73 51.62,-3.08 118.89,-81.83 258.61,-122.74 419.14,-122.74zm-120.31 1242.1c112.72,0 204.85,-37.39 276.38,-112.18 71.54,-74.79 107.31,-172.88 107.31,-294.27 0,-121.39 -35.77,-219.48 -107.31,-294.26 -71.53,-74.79 -163.66,-112.18 -276.38,-112.18 -112.72,0 -204.31,37.93 -274.76,113.8 -70.45,75.87 -105.67,173.42 -105.67,292.64 0,119.23 35.22,216.77 105.67,292.64 70.45,75.87 162.04,113.81 274.76,113.81z"/>
   <path class="fil1" d="M1484.65 1989.21l-285.24 385.08c-26.96,35.82 -47.2,57.84 -71.56,93.86l-939.35 1271.54c-28.01,33.54 -44.82,60.23 -70.45,95.37 -82.32,112.9 -160.54,224.81 -92.83,375.83 6.18,13.79 25.28,43.13 32.27,50.54 9.43,10 9.71,8.66 19.34,17.03 49.64,43.16 84.15,63.56 163.9,60.25 120.35,-5 759.2,-340.57 943.86,-423.52l452.01 -219.96c280.41,-125.85 653.33,-324.39 923.26,-439.84 78.82,-33.71 294.53,-129.62 364.64,-178.4 49.43,-34.39 39.13,-15.57 70.9,-67.07 48.93,-79.31 87.81,-145.43 57.95,-262.81 -21.95,-86.27 -89,-160.32 -148.98,-190.56 -106.22,-53.55 -176.46,-21.31 -272.63,16.76 -68.3,27.04 -169.62,73.04 -233.12,107.22 -159.9,86.07 -511.05,226.96 -701.97,320.79 -38.71,19.02 -198.38,104.28 -231.02,94.33 -17.15,-31.23 -4.19,-44.24 11.47,-65.33l594.51 -796.35c15.74,-20.62 27.53,-36.8 36.57,-59.3 8.67,-7.83 6.4,-5.81 15.76,-16.31l751.93 -1017.54c25.88,-38.76 60.11,-73.97 87.85,-15.65l75.46 246.74c30.92,95.1 62.83,191.02 91.64,286.41 170.77,565.49 363.78,1148.85 534.92,1712.96 56.08,184.85 113.86,389.79 177.59,568.33 40.06,112.22 91.16,343.6 146.76,405.44 13.6,15.12 32.34,28.85 47.59,43.52 83.64,80.44 245.24,89.92 358.52,39.53 84.62,-37.65 131.03,-110.57 173.09,-202.53 79.69,-174.26 151.58,-351.98 234.84,-520.72 81.24,-164.65 147.3,-353.12 229.29,-517 147.29,-294.4 315.53,-733.47 460.38,-1031.83l234.72 -520.82c40.93,-97.32 89.22,-174.5 24.27,-279.11 -46.01,-74.13 -155.48,-113.07 -268.34,-66.19 -174,72.28 -356.27,147.4 -528.82,226.91 -85.38,39.34 -173.68,75.52 -257.49,110.79 -87.33,36.75 -173.33,80.31 -261.84,115.54 -89.02,35.42 -178.82,73.68 -266.89,111.27 -329.15,140.45 -280.13,193.48 -385.96,-178.36l-275.65 -912.41c-29.11,-100.82 -59.98,-202.94 -92.99,-303.27 -60.74,-184.59 -78.53,-456.83 -337.34,-453.2 -147.79,2.07 -235.39,131.57 -326.73,261.01 -8.01,11.36 -8.93,16.11 -17.23,29.48l-149.21 200.26c-28.78,41.61 -58.99,75.77 -87.05,115.63l-80.85 112.85c-26.51,39.18 -57.89,75.54 -87.18,115.34l-801.32 1087.01c-15.16,20.71 -28.81,41.76 -43.25,60.46zm2836.55 1342.66c48.26,-18.58 235.57,-457.15 263.44,-529.59 37.2,-96.69 237.4,-492.16 226.48,-558.84 -56.36,-11.27 -305.14,116.41 -372.18,146.09 -453.47,200.72 -396.91,123.2 -327.84,359.06l120.84 404.22c17.23,57.19 25.59,168.59 89.26,179.06z"/>
  </g>
 </g>
</svg>
